<svg xmlns="http://www.w3.org/2000/svg" xmlns:xlink="http://www.w3.org/1999/xlink" width="40" zoomAndPan="magnify" viewBox="0 0 30 30.000001" height="40" preserveAspectRatio="xMidYMid meet" version="1.0"><defs><clipPath id="id1"><path d="M 4.019531 0 L 25.792969 0 L 25.792969 29.03125 L 4.019531 29.03125 Z M 4.019531 0 " clip-rule="nonzero"/></clipPath></defs><g clip-path="url(#id1)"><path fill="#5e6061" d="M 25.789062 27.355469 C 25.792969 28.253906 25.074219 28.980469 24.183594 28.980469 L 5.683594 29.019531 C 4.796875 29.023438 4.074219 28.296875 4.070312 27.402344 L 4.019531 1.675781 C 4.019531 0.78125 4.738281 0.0507812 5.625 0.0507812 L 24.125 0.0117188 C 25.011719 0.0117188 25.734375 0.734375 25.738281 1.628906 L 25.789062 27.355469 " fill-opacity="1" fill-rule="nonzero"/></g><path fill="#e9e8e7" d="M 24.109375 7.875 C 24.109375 8.3125 23.757812 8.664062 23.324219 8.664062 L 6.460938 8.699219 C 6.027344 8.699219 5.675781 8.347656 5.675781 7.914062 L 5.664062 2.964844 C 5.664062 2.53125 6.015625 2.179688 6.449219 2.179688 L 23.308594 2.144531 C 23.742188 2.140625 24.097656 2.492188 24.097656 2.929688 L 24.109375 7.875 " fill-opacity="1" fill-rule="nonzero"/><path fill="#959595" d="M 9.574219 17.328125 C 9.578125 17.550781 9.386719 17.730469 9.148438 17.730469 L 6.644531 17.738281 C 6.410156 17.738281 6.21875 17.558594 6.21875 17.335938 L 6.210938 15.050781 C 6.210938 14.828125 6.402344 14.648438 6.636719 14.648438 L 9.144531 14.644531 C 9.378906 14.644531 9.570312 14.824219 9.570312 15.046875 L 9.574219 17.328125 " fill-opacity="1" fill-rule="nonzero"/><path fill="#959595" d="M 9.585938 21.960938 C 9.585938 22.183594 9.394531 22.363281 9.160156 22.363281 L 6.652344 22.371094 C 6.417969 22.371094 6.226562 22.191406 6.226562 21.96875 L 6.222656 19.683594 C 6.222656 19.460938 6.414062 19.28125 6.648438 19.28125 L 9.152344 19.277344 C 9.390625 19.273438 9.582031 19.457031 9.582031 19.679688 L 9.585938 21.960938 " fill-opacity="1" fill-rule="nonzero"/><path fill="#959595" d="M 9.59375 26.59375 C 9.59375 26.816406 9.40625 26.996094 9.167969 26.996094 L 6.664062 27.003906 C 6.425781 27.003906 6.238281 26.824219 6.234375 26.601562 L 6.230469 24.320312 C 6.230469 24.09375 6.421875 23.914062 6.65625 23.914062 L 9.164062 23.910156 C 9.398438 23.90625 9.589844 24.089844 9.589844 24.3125 L 9.59375 26.59375 " fill-opacity="1" fill-rule="nonzero"/><path fill="#959595" d="M 14.25 17.316406 C 14.253906 17.539062 14.0625 17.722656 13.828125 17.722656 L 11.320312 17.726562 C 11.085938 17.726562 10.894531 17.546875 10.894531 17.324219 L 10.886719 15.042969 C 10.886719 14.820312 11.078125 14.640625 11.3125 14.640625 L 13.820312 14.632812 C 14.054688 14.632812 14.246094 14.8125 14.246094 15.035156 L 14.25 17.316406 " fill-opacity="1" fill-rule="nonzero"/><path fill="#959595" d="M 14.261719 21.949219 C 14.261719 22.171875 14.070312 22.355469 13.835938 22.355469 L 11.328125 22.359375 C 11.09375 22.359375 10.902344 22.179688 10.902344 21.957031 L 10.898438 19.675781 C 10.898438 19.453125 11.089844 19.273438 11.324219 19.273438 L 13.828125 19.265625 C 14.066406 19.265625 14.257812 19.445312 14.257812 19.667969 L 14.261719 21.949219 " fill-opacity="1" fill-rule="nonzero"/><path fill="#959595" d="M 14.269531 26.582031 C 14.269531 26.804688 14.082031 26.988281 13.84375 26.988281 L 11.339844 26.992188 C 11.105469 26.992188 10.914062 26.8125 10.910156 26.589844 L 10.90625 24.308594 C 10.90625 24.085938 11.097656 23.90625 11.332031 23.902344 L 13.839844 23.898438 C 14.074219 23.898438 14.265625 24.078125 14.265625 24.300781 L 14.269531 26.582031 " fill-opacity="1" fill-rule="nonzero"/><path fill="#959595" d="M 18.929688 17.308594 C 18.929688 17.53125 18.738281 17.710938 18.503906 17.710938 L 15.996094 17.71875 C 15.761719 17.71875 15.570312 17.539062 15.570312 17.316406 L 15.5625 15.035156 C 15.5625 14.808594 15.753906 14.628906 15.988281 14.628906 L 18.496094 14.625 C 18.730469 14.625 18.921875 14.804688 18.921875 15.027344 L 18.929688 17.308594 " fill-opacity="1" fill-rule="nonzero"/><path fill="#959595" d="M 23.484375 17.355469 C 23.488281 17.578125 23.296875 17.761719 23.058594 17.761719 L 20.554688 17.765625 C 20.320312 17.765625 20.128906 17.585938 20.125 17.363281 L 20.121094 15.082031 C 20.121094 14.859375 20.3125 14.679688 20.546875 14.675781 L 23.054688 14.671875 C 23.289062 14.671875 23.480469 14.851562 23.480469 15.074219 L 23.484375 17.355469 " fill-opacity="1" fill-rule="nonzero"/><path fill="#959595" d="M 18.9375 21.941406 C 18.9375 22.164062 18.746094 22.34375 18.511719 22.34375 L 16.007812 22.351562 C 15.769531 22.351562 15.578125 22.171875 15.578125 21.949219 L 15.574219 19.667969 C 15.574219 19.445312 15.765625 19.261719 16 19.261719 L 18.503906 19.257812 C 18.742188 19.257812 18.933594 19.4375 18.933594 19.660156 L 18.9375 21.941406 " fill-opacity="1" fill-rule="nonzero"/><path fill="#959595" d="M 18.945312 26.574219 C 18.949219 26.796875 18.757812 26.976562 18.523438 26.976562 L 16.015625 26.984375 C 15.78125 26.984375 15.589844 26.804688 15.589844 26.582031 L 15.582031 24.296875 C 15.582031 24.074219 15.773438 23.894531 16.007812 23.894531 L 18.515625 23.890625 C 18.75 23.890625 18.941406 24.070312 18.941406 24.292969 L 18.945312 26.574219 " fill-opacity="1" fill-rule="nonzero"/><path fill="#cdccca" d="M 9.683594 12.902344 C 9.683594 13.09375 9.519531 13.25 9.316406 13.25 L 6.460938 13.257812 C 6.257812 13.257812 6.089844 13.101562 6.089844 12.910156 L 6.085938 10.957031 C 6.085938 10.765625 6.25 10.609375 6.453125 10.609375 L 9.3125 10.601562 C 9.515625 10.601562 9.679688 10.757812 9.679688 10.949219 L 9.683594 12.902344 " fill-opacity="1" fill-rule="nonzero"/><path fill="#cdccca" d="M 14.359375 12.890625 C 14.359375 13.085938 14.195312 13.242188 13.992188 13.242188 L 11.136719 13.246094 C 10.933594 13.246094 10.765625 13.089844 10.765625 12.898438 L 10.761719 10.949219 C 10.761719 10.753906 10.925781 10.597656 11.128906 10.597656 L 13.988281 10.59375 C 14.191406 10.589844 14.355469 10.746094 14.355469 10.941406 L 14.359375 12.890625 " fill-opacity="1" fill-rule="nonzero"/><path fill="#cdccca" d="M 19.035156 12.882812 C 19.035156 13.074219 18.871094 13.230469 18.667969 13.230469 L 15.8125 13.238281 C 15.609375 13.238281 15.441406 13.082031 15.441406 12.890625 L 15.4375 10.9375 C 15.4375 10.746094 15.601562 10.589844 15.808594 10.589844 L 18.664062 10.582031 C 18.867188 10.582031 19.03125 10.738281 19.03125 10.929688 L 19.035156 12.882812 " fill-opacity="1" fill-rule="nonzero"/><path fill="#cdccca" d="M 23.710938 12.871094 C 23.714844 13.066406 23.546875 13.222656 23.34375 13.222656 L 20.488281 13.226562 C 20.285156 13.226562 20.117188 13.074219 20.117188 12.878906 L 20.113281 10.929688 C 20.113281 10.734375 20.277344 10.578125 20.484375 10.578125 L 23.339844 10.574219 C 23.542969 10.570312 23.707031 10.726562 23.707031 10.921875 L 23.710938 12.871094 " fill-opacity="1" fill-rule="nonzero"/><path fill="#dc8531" d="M 23.738281 25.847656 C 23.738281 26.394531 23.574219 26.839844 23.371094 26.839844 L 20.515625 26.84375 C 20.3125 26.84375 20.144531 26.402344 20.144531 25.855469 L 20.132812 20.332031 C 20.132812 19.785156 20.296875 19.34375 20.5 19.34375 L 23.355469 19.335938 C 23.558594 19.335938 23.726562 19.78125 23.726562 20.328125 L 23.738281 25.847656 " fill-opacity="1" fill-rule="nonzero"/><path fill="#464648" d="M 17.421875 3.355469 L 17.21875 3.113281 L 17.421875 2.867188 L 19.199219 2.863281 L 19.40625 3.105469 L 19.199219 3.347656 L 17.421875 3.355469 " fill-opacity="1" fill-rule="nonzero"/><path fill="#464648" d="M 17.300781 5.664062 L 17.101562 5.421875 L 17.300781 5.179688 L 19.078125 5.175781 L 19.289062 5.417969 L 19.082031 5.660156 L 17.300781 5.664062 " fill-opacity="1" fill-rule="nonzero"/><path fill="#464648" d="M 17.203125 8.042969 L 16.914062 7.800781 L 17.199219 7.558594 L 18.976562 7.554688 L 19.1875 7.796875 L 18.980469 8.039062 L 17.203125 8.042969 " fill-opacity="1" fill-rule="nonzero"/><path fill="#464648" d="M 20.894531 3.3125 L 20.691406 3.070312 L 20.894531 2.828125 L 22.671875 2.820312 L 22.878906 3.0625 L 22.671875 3.308594 L 20.894531 3.3125 " fill-opacity="1" fill-rule="nonzero"/><path fill="#464648" d="M 20.667969 5.65625 L 20.464844 5.414062 L 20.667969 5.171875 L 22.445312 5.167969 L 22.652344 5.410156 L 22.449219 5.652344 L 20.667969 5.65625 " fill-opacity="1" fill-rule="nonzero"/><path fill="#464648" d="M 20.507812 8.003906 L 20.304688 7.761719 L 20.507812 7.515625 L 22.285156 7.511719 L 22.492188 7.753906 L 22.285156 7.996094 L 20.507812 8.003906 " fill-opacity="1" fill-rule="nonzero"/><path fill="#464648" d="M 15.867188 7.523438 L 15.613281 7.707031 L 15.390625 7.484375 L 15.53125 5.695312 L 15.789062 5.507812 L 16.011719 5.734375 L 15.867188 7.523438 " fill-opacity="1" fill-rule="nonzero"/><path fill="#464648" d="M 23.007812 5.167969 L 22.75 5.351562 L 22.527344 5.128906 L 22.671875 3.339844 L 22.925781 3.152344 L 23.148438 3.378906 L 23.007812 5.167969 " fill-opacity="1" fill-rule="nonzero"/><path fill="#464648" d="M 19.617188 5.171875 L 19.359375 5.355469 L 19.136719 5.132812 L 19.28125 3.347656 L 19.535156 3.160156 L 19.761719 3.386719 L 19.617188 5.171875 " fill-opacity="1" fill-rule="nonzero"/><path fill="#464648" d="M 16.050781 5.179688 L 15.792969 5.363281 L 15.570312 5.140625 L 15.714844 3.355469 L 15.972656 3.167969 L 16.195312 3.394531 L 16.050781 5.179688 " fill-opacity="1" fill-rule="nonzero"/><path fill="#464648" d="M 22.824219 7.507812 L 22.570312 7.691406 L 22.34375 7.46875 L 22.488281 5.679688 L 22.746094 5.492188 L 22.96875 5.722656 L 22.824219 7.507812 " fill-opacity="1" fill-rule="nonzero"/><path fill="#464648" d="M 17.082031 7.519531 L 16.824219 7.703125 L 16.601562 7.480469 L 16.746094 5.695312 L 17.003906 5.503906 L 17.226562 5.734375 L 17.082031 7.519531 " fill-opacity="1" fill-rule="nonzero"/></svg>