<svg xmlns="http://www.w3.org/2000/svg" xmlns:xlink="http://www.w3.org/1999/xlink" width="50" zoomAndPan="magnify" viewBox="0 0 37.5 37.499999" height="50" preserveAspectRatio="xMidYMid meet" version="1.0"><defs><clipPath id="id1"><path d="M 0.0546875 0 L 37.007812 0 L 37.007812 37.007812 L 0.0546875 37.007812 Z M 0.0546875 0 " clip-rule="nonzero"/></clipPath></defs><g clip-path="url(#id1)"><path fill="#737373" d="M 37.554688 18.75 C 37.554688 29.082031 29.160156 37.441406 18.804688 37.441406 C 8.445312 37.441406 0.0546875 29.082031 0.0546875 18.75 C 0.0546875 8.425781 8.445312 0.0585938 18.804688 0.0585938 C 29.160156 0.0585938 37.554688 8.425781 37.554688 18.75 Z M 37.554688 18.75 " fill-opacity="1" fill-rule="nonzero"/></g><path fill="#ffffff" d="M 13.695312 10.207031 L 27.757812 24.226562 L 24.441406 27.53125 L 10.382812 13.511719 Z M 13.695312 10.207031 " fill-opacity="1" fill-rule="nonzero"/><path fill="#ffffff" d="M 13.699219 27.53125 L 10.382812 24.226562 L 24.441406 10.207031 L 27.757812 13.511719 Z M 13.699219 27.53125 " fill-opacity="1" fill-rule="nonzero"/></svg>