<svg xmlns="http://www.w3.org/2000/svg" xmlns:xlink="http://www.w3.org/1999/xlink" width="40" zoomAndPan="magnify" viewBox="0 0 30 30.000001" height="40" preserveAspectRatio="xMidYMid meet" version="1.0"><defs><clipPath id="id1"><path d="M 0.484375 0 L 29.515625 0 L 29.515625 29.03125 L 0.484375 29.03125 Z M 0.484375 0 " clip-rule="nonzero"/></clipPath></defs><g clip-path="url(#id1)"><path fill="#7b7c7f" d="M 21.710938 14.085938 L 15.910156 19.890625 C 15.671875 20.125 15.351562 20.257812 15.015625 20.257812 L 14.980469 20.257812 C 14.644531 20.257812 14.324219 20.125 14.089844 19.890625 L 8.285156 14.085938 C 7.792969 13.59375 7.792969 12.796875 8.285156 12.304688 C 8.78125 11.8125 9.578125 11.8125 10.070312 12.304688 L 15 17.230469 L 19.925781 12.304688 C 20.417969 11.8125 21.21875 11.8125 21.710938 12.304688 C 22.203125 12.796875 22.203125 13.59375 21.710938 14.085938 Z M 15 0.00390625 C 6.980469 0.00390625 0.480469 6.503906 0.480469 14.519531 C 0.480469 22.539062 6.980469 29.039062 15 29.039062 C 23.015625 29.039062 29.515625 22.539062 29.515625 14.519531 C 29.515625 6.503906 23.015625 0.00390625 15 0.00390625 " fill-opacity="1" fill-rule="nonzero"/></g></svg>