<svg xmlns="http://www.w3.org/2000/svg" xmlns:xlink="http://www.w3.org/1999/xlink" width="40" zoomAndPan="magnify" viewBox="0 0 30 30.000001" height="40" preserveAspectRatio="xMidYMid meet" version="1.0"><defs><clipPath id="id1"><path d="M 0.484375 0 L 29.515625 0 L 29.515625 29.03125 L 0.484375 29.03125 Z M 0.484375 0 " clip-rule="nonzero"/></clipPath></defs><g clip-path="url(#id1)"><path fill="#d80f0f" d="M 15 29.035156 C 6.984375 29.035156 0.484375 22.535156 0.484375 14.515625 C 0.484375 6.5 6.984375 0 15 0 C 23.019531 0 29.519531 6.5 29.519531 14.515625 C 29.519531 22.535156 23.019531 29.035156 15 29.035156 " fill-opacity="1" fill-rule="nonzero"/></g><path fill="#ffffff" d="M 23.671875 20.203125 L 17.960938 14.503906 L 23.65625 8.796875 L 20.6875 5.835938 L 14.996094 11.542969 L 9.292969 5.847656 L 6.332031 8.820312 L 12.042969 14.511719 L 6.34375 20.226562 L 9.304688 23.175781 L 15.003906 17.464844 L 20.722656 23.160156 L 23.671875 20.203125 " fill-opacity="1" fill-rule="nonzero"/></svg>