<svg xmlns="http://www.w3.org/2000/svg" xmlns:xlink="http://www.w3.org/1999/xlink" width="40" zoomAndPan="magnify" viewBox="0 0 30 30.000001" height="40" preserveAspectRatio="xMidYMid meet" version="1.0"><defs><clipPath id="id1"><path d="M 0.484375 3 L 29 3 L 29 27.582031 L 0.484375 27.582031 Z M 0.484375 3 " clip-rule="nonzero"/></clipPath><clipPath id="id2"><path d="M 18 0 L 29.515625 0 L 29.515625 6 L 18 6 Z M 18 0 " clip-rule="nonzero"/></clipPath></defs><g clip-path="url(#id1)"><path fill="#d9d9d9" d="M 12.105469 3.003906 C 10.550781 3.003906 9.128906 3.878906 8.433594 5.269531 L 7.894531 6.34375 C 7.660156 6.808594 7.1875 7.101562 6.667969 7.101562 L 4.941406 7.101562 C 2.671875 7.101562 0.832031 8.933594 0.832031 11.195312 L 0.832031 23.484375 C 0.832031 25.746094 2.671875 27.582031 4.941406 27.582031 L 24.101562 27.582031 C 26.371094 27.582031 28.207031 25.746094 28.207031 23.484375 L 28.207031 11.195312 C 28.207031 8.933594 26.371094 7.101562 24.101562 7.101562 L 22.371094 7.101562 C 21.855469 7.101562 21.378906 6.808594 21.148438 6.34375 L 20.609375 5.269531 C 19.914062 3.878906 18.492188 3.003906 16.933594 3.003906 Z M 12.105469 3.003906 " fill-opacity="1" fill-rule="nonzero"/></g><path fill="#a6a6a6" d="M 14.519531 9.832031 C 10.742188 9.832031 7.675781 12.886719 7.675781 16.65625 C 7.675781 20.429688 10.742188 23.484375 14.519531 23.484375 C 18.300781 23.484375 21.363281 20.429688 21.363281 16.65625 C 21.363281 12.886719 18.300781 9.832031 14.519531 9.832031 Z M 14.519531 9.832031 " fill-opacity="1" fill-rule="nonzero"/><path fill="#a6a6a6" d="M 22.410156 9.011719 L 23.429688 10.027344 L 21.492188 11.957031 L 18.136719 8.613281 C 17.746094 8.222656 17.628906 7.632812 17.839844 7.125 C 18.054688 6.613281 18.554688 6.28125 19.105469 6.28125 L 28.207031 6.28125 L 28.207031 9.011719 Z M 22.410156 9.011719 " fill-opacity="1" fill-rule="evenodd"/><g clip-path="url(#id2)"><path fill="#a6a6a6" d="M 25.34375 -0.0078125 L 28.695312 3.335938 C 29.089844 3.726562 29.207031 4.3125 28.992188 4.824219 C 28.78125 5.332031 28.28125 5.667969 27.730469 5.667969 L 18.628906 5.667969 L 18.628906 2.933594 L 24.425781 2.933594 L 23.40625 1.921875 Z M 25.34375 -0.0078125 " fill-opacity="1" fill-rule="evenodd"/></g></svg>