<svg xmlns="http://www.w3.org/2000/svg" xmlns:xlink="http://www.w3.org/1999/xlink" width="50" zoomAndPan="magnify" viewBox="0 0 37.5 37.499999" height="50" preserveAspectRatio="xMidYMid meet" version="1.0"><defs><clipPath id="id1"><path d="M 0 0 L 37.007812 0 L 37.007812 37.007812 L 0 37.007812 Z M 0 0 " clip-rule="nonzero"/></clipPath></defs><path fill="#d9d9d9" d="M 34.050781 15.015625 L 31.359375 14.675781 C 31.136719 13.992188 30.863281 13.332031 30.542969 12.707031 L 32.207031 10.566406 C 32.878906 9.699219 32.800781 8.476562 32.03125 7.730469 L 29.777344 5.476562 C 29.023438 4.699219 27.804688 4.621094 26.933594 5.292969 L 24.796875 6.957031 C 24.167969 6.636719 23.511719 6.363281 22.828125 6.140625 L 22.484375 3.453125 C 22.351562 2.375 21.4375 1.5625 20.355469 1.5625 L 17.144531 1.5625 C 16.0625 1.5625 15.144531 2.375 15.015625 3.449219 L 14.675781 6.140625 C 13.992188 6.363281 13.332031 6.636719 12.707031 6.953125 L 10.566406 5.292969 C 9.699219 4.621094 8.476562 4.699219 7.730469 5.464844 L 5.476562 7.722656 C 4.699219 8.476562 4.621094 9.699219 5.292969 10.566406 L 6.957031 12.707031 C 6.636719 13.335938 6.363281 13.992188 6.140625 14.675781 L 3.453125 15.015625 C 2.375 15.148438 1.5625 16.0625 1.5625 17.144531 L 1.5625 20.355469 C 1.5625 21.4375 2.375 22.355469 3.449219 22.484375 L 6.140625 22.824219 C 6.363281 23.507812 6.636719 24.167969 6.957031 24.792969 L 5.292969 26.933594 C 4.621094 27.800781 4.699219 29.023438 5.46875 29.769531 L 7.722656 32.027344 C 8.476562 32.800781 9.699219 32.878906 10.566406 32.207031 L 12.707031 30.546875 C 13.332031 30.867188 13.992188 31.140625 14.675781 31.359375 L 15.015625 34.046875 C 15.148438 35.125 16.0625 35.9375 17.144531 35.9375 L 20.355469 35.9375 C 21.4375 35.9375 22.355469 35.125 22.484375 34.050781 L 22.824219 31.359375 C 23.507812 31.136719 24.167969 30.863281 24.792969 30.542969 L 26.933594 32.207031 C 27.800781 32.878906 29.023438 32.800781 29.769531 32.03125 L 32.023438 29.777344 C 32.800781 29.023438 32.878906 27.804688 32.207031 26.933594 L 30.542969 24.792969 C 30.863281 24.167969 31.136719 23.507812 31.359375 22.824219 L 34.046875 22.484375 C 35.125 22.351562 35.9375 21.4375 35.9375 20.355469 L 35.9375 17.144531 C 35.9375 16.0625 35.125 15.148438 34.050781 15.015625 Z M 34.050781 15.015625 " fill-opacity="1" fill-rule="nonzero"/><path fill="#ffffff" d="M 26.5625 18.75 C 26.5625 23.066406 23.066406 26.5625 18.75 26.5625 C 14.433594 26.5625 10.9375 23.066406 10.9375 18.75 C 10.9375 14.433594 14.433594 10.9375 18.75 10.9375 C 23.066406 10.9375 26.5625 14.433594 26.5625 18.75 Z M 26.5625 18.75 " fill-opacity="1" fill-rule="nonzero"/><g clip-path="url(#id1)"><path fill="#000000" d="M 20.109375 37.5 L 17.390625 37.5 C 16.007812 37.5 14.859375 36.503906 14.667969 35.132812 L 14.265625 32.078125 C 13.652344 31.875 13.0625 31.628906 12.488281 31.34375 L 10.058594 33.210938 C 8.976562 34.046875 7.425781 33.945312 6.453125 32.96875 L 4.53125 31.046875 C 3.554688 30.074219 3.453125 28.523438 4.292969 27.4375 L 6.15625 25.011719 C 5.871094 24.4375 5.628906 23.84375 5.425781 23.234375 L 2.378906 22.835938 C 0.996094 22.640625 0 21.492188 0 20.109375 L 0 17.390625 C 0 16.007812 0.996094 14.859375 2.367188 14.667969 L 5.421875 14.265625 C 5.625 13.652344 5.871094 13.0625 6.15625 12.488281 L 4.289062 10.058594 C 3.453125 8.976562 3.554688 7.425781 4.53125 6.453125 L 6.453125 4.53125 C 7.425781 3.554688 8.976562 3.453125 10.0625 4.292969 L 12.488281 6.15625 C 13.058594 5.871094 13.652344 5.625 14.265625 5.421875 L 14.664062 2.378906 C 14.859375 0.996094 16.007812 0 17.390625 0 L 20.109375 0 C 21.492188 0 22.640625 0.996094 22.832031 2.367188 L 23.234375 5.425781 C 23.847656 5.628906 24.4375 5.875 25.011719 6.15625 L 27.441406 4.289062 C 28.523438 3.453125 30.074219 3.554688 31.046875 4.53125 L 32.96875 6.453125 C 33.945312 7.425781 34.046875 8.976562 33.207031 10.0625 L 31.34375 12.488281 C 31.628906 13.0625 31.875 13.65625 32.078125 14.265625 L 35.121094 14.664062 C 36.503906 14.859375 37.5 16.007812 37.5 17.390625 L 37.5 20.109375 C 37.5 21.492188 36.503906 22.640625 35.132812 22.832031 L 32.074219 23.234375 C 31.871094 23.847656 31.625 24.4375 31.34375 25.011719 L 33.210938 27.441406 C 34.046875 28.523438 33.941406 30.074219 32.96875 31.046875 L 31.046875 32.96875 C 30.070312 33.941406 28.523438 34.042969 27.4375 33.207031 L 25.011719 31.34375 C 24.4375 31.628906 23.84375 31.871094 23.234375 32.074219 L 22.835938 35.121094 C 22.640625 36.503906 21.492188 37.5 20.109375 37.5 Z M 12.375 28.78125 C 12.578125 28.78125 12.777344 28.832031 12.960938 28.9375 C 13.789062 29.414062 14.6875 29.785156 15.632812 30.039062 C 16.089844 30.164062 16.429688 30.550781 16.492188 31.019531 L 16.992188 34.816406 C 17.019531 35.011719 17.183594 35.15625 17.390625 35.15625 L 20.109375 35.15625 C 20.316406 35.15625 20.484375 35.011719 20.511719 34.804688 L 21.007812 31.019531 C 21.070312 30.546875 21.410156 30.164062 21.867188 30.039062 C 22.8125 29.785156 23.710938 29.414062 24.539062 28.9375 C 24.949219 28.703125 25.460938 28.734375 25.839844 29.023438 L 28.871094 31.351562 C 29.03125 31.476562 29.242188 31.460938 29.390625 31.3125 L 31.3125 29.390625 C 31.457031 29.242188 31.476562 29.03125 31.351562 28.875 L 29.023438 25.839844 C 28.734375 25.460938 28.699219 24.949219 28.9375 24.539062 C 29.414062 23.710938 29.785156 22.8125 30.039062 21.867188 C 30.164062 21.410156 30.546875 21.070312 31.015625 21.007812 L 34.8125 20.507812 C 35.007812 20.480469 35.15625 20.316406 35.15625 20.109375 L 35.15625 17.390625 C 35.15625 17.183594 35.011719 17.015625 34.804688 16.988281 L 31.015625 16.492188 C 30.546875 16.429688 30.160156 16.089844 30.039062 15.632812 C 29.785156 14.6875 29.414062 13.789062 28.9375 12.960938 C 28.699219 12.550781 28.734375 12.039062 29.023438 11.660156 L 31.351562 8.628906 C 31.476562 8.46875 31.457031 8.257812 31.3125 8.109375 L 29.390625 6.1875 C 29.242188 6.042969 29.03125 6.023438 28.875 6.144531 L 25.839844 8.476562 C 25.460938 8.765625 24.949219 8.796875 24.539062 8.5625 C 23.710938 8.085938 22.8125 7.714844 21.867188 7.460938 C 21.410156 7.335938 21.070312 6.949219 21.007812 6.480469 L 20.507812 2.683594 C 20.484375 2.488281 20.316406 2.34375 20.109375 2.34375 L 17.390625 2.34375 C 17.183594 2.34375 17.015625 2.488281 16.988281 2.695312 L 16.492188 6.480469 C 16.429688 6.953125 16.089844 7.335938 15.632812 7.460938 C 14.6875 7.714844 13.789062 8.085938 12.960938 8.5625 C 12.546875 8.796875 12.039062 8.765625 11.660156 8.476562 L 8.628906 6.148438 C 8.46875 6.023438 8.257812 6.039062 8.109375 6.1875 L 6.1875 8.109375 C 6.039062 8.257812 6.023438 8.46875 6.144531 8.625 L 8.476562 11.660156 C 8.765625 12.039062 8.796875 12.550781 8.5625 12.960938 C 8.085938 13.789062 7.714844 14.6875 7.460938 15.632812 C 7.335938 16.085938 6.949219 16.425781 6.480469 16.488281 L 2.683594 16.988281 C 2.488281 17.015625 2.34375 17.183594 2.34375 17.390625 L 2.34375 20.109375 C 2.34375 20.316406 2.488281 20.484375 2.695312 20.511719 L 6.480469 21.007812 C 6.953125 21.070312 7.335938 21.410156 7.460938 21.867188 C 7.714844 22.8125 8.085938 23.710938 8.5625 24.539062 C 8.796875 24.949219 8.765625 25.460938 8.476562 25.839844 L 6.148438 28.871094 C 6.023438 29.03125 6.042969 29.242188 6.1875 29.390625 L 8.109375 31.3125 C 8.253906 31.457031 8.46875 31.476562 8.625 31.351562 L 11.660156 29.023438 C 11.871094 28.863281 12.121094 28.78125 12.375 28.78125 Z M 12.375 28.78125 " fill-opacity="1" fill-rule="nonzero"/></g><path fill="#000000" d="M 18.75 26.5625 C 14.441406 26.5625 10.9375 23.058594 10.9375 18.75 C 10.9375 14.441406 14.441406 10.9375 18.75 10.9375 C 23.058594 10.9375 26.5625 14.441406 26.5625 18.75 C 26.5625 23.058594 23.058594 26.5625 18.75 26.5625 Z M 18.75 13.28125 C 15.734375 13.28125 13.28125 15.734375 13.28125 18.75 C 13.28125 21.765625 15.734375 24.21875 18.75 24.21875 C 21.765625 24.21875 24.21875 21.765625 24.21875 18.75 C 24.21875 15.734375 21.765625 13.28125 18.75 13.28125 Z M 18.75 13.28125 " fill-opacity="1" fill-rule="nonzero"/></svg>